<?xml version="1.0"?><svg width="640" height="480" xmlns="http://www.w3.org/2000/svg">
 <title>crown3</title>
 <metadata id="metadata2401">image/svg+xmlCrown with cross on the topcrown religious cross king</metadata>
 <g>
  <title>Layer 1</title>
  <g id="layer1">
   <g id="g2392">
    <path fill="#000000" fill-rule="evenodd" id="path16" d="m464.75589,190.118988c-34.699829,-10.895737 -70.108765,-16.071625 -105.852173,-18.642395c9.892181,-20.098846 -0.078186,-37.278046 -19.197083,-43.335709l-0.909027,-9.01239l8.315887,0l7.621368,6.234192c12.89566,-12.101135 10.993927,-23.598473 -1.038086,-34.663376l-3.465271,5.546906l-9.359497,0.339996l0,-4.501579l5.886963,-6.932312c-14.850067,-7.385056 -30.218292,-7.499573 -46.104675,-0.339996l8.315918,4.850685l3.117981,7.27951l-9.701263,0l-6.583252,-5.199669c-10.67392,10.632233 -10.441193,23.344231 0.689026,38.137749l5.801514,-9.957611l8.06134,0.256348l-0.561768,8.230438c-23.22229,10.424866 -28.236542,25.013306 -15.035492,43.768417c-38.939575,1.329193 -76.024765,8.843323 -111.853638,20.582474c-14.175552,-15.631668 -29.521927,-11.782974 -41.361267,-35.21254c2.458038,28.563812 -6.626877,36.845169 -5.808746,54.236908c-13.244705,6.101471 -24.934967,14.800964 -35.061653,26.100342c-18.906197,-17.569916 -35.779793,-23.96228 -52.597,-29.998306c14.544609,21.298965 22.073288,43.370255 33.116302,65.059555c-1.229042,9.154022 1.747169,16.035461 14.026466,17.918976l31.552734,46.750092c-3.763397,9.610352 0.909042,18.180756 10.517593,19.480682l13.244705,17.918976c54.542343,-8.479492 109.482834,-15.013672 164.025192,-15.319092c63.1073,-0.341827 124.27652,5.53241 188.945587,13.364685l12.462952,-20.644287c10.255737,-0.645416 16.619019,-9.346741 11.292053,-19.864319l30.772827,-45.579224c14.417297,-0.647247 16.235413,-7.137787 14.026428,-20.255219l28.436584,-62.332443c-16.100891,11.817505 -35.716187,16.228165 -48.308167,28.436737c-9.899414,-10.128693 -21.65332,-17.79007 -34.670776,-23.764282c1.818115,-23.498657 -7.272278,-32.58905 -7.399597,-51.815216c-13.564636,18.358948 -20.511505,7.890457 -45.373749,32.88176l0.012756,-0.005463zm14.971863,87.969177c5.019745,-7.42868 -0.007294,-8.174072 -4.381592,-3.707062c-13.87738,19.573425 -8.47403,33.030853 12.817474,40.154053c29.196533,3.607086 37.51239,-8.99765 45.182861,-22.61142c2.932556,-5.696045 0.759949,-9.14856 -3.359802,-1.683533c-9.012207,9.026733 -7.514099,16.880829 -26.77301,19.835236c4.296143,-12.606567 6.83783,-34.281677 22.562317,-57.623444c4.821594,-6.798004 10.617615,-6.214386 16.404541,-5.959869c-8.834045,-9.408356 -20.509705,-16.759018 -32.987183,-23.542282l-4.097961,6.754166c18.351685,2.158051 24.87677,13.699219 12.413818,32.837769c-5.717834,17.137207 -30.054657,30.745514 -29.678314,46.59552c-13.713745,-5.070618 -15.993622,-13.464691 -8.095886,-31.034607l-0.007263,-0.014526zm-121.7258,-86.6418c1.732635,5.930389 0.474548,11.910049 -3.772491,17.938797c27.158447,-10.49559 48.499054,-2.507126 48.620819,23.891541c-0.987213,18.926025 -24.565857,36.999176 -18.720734,62.246826c-20.887878,-2.514404 -26.782074,-11.504791 -25.680359,-33.556274c-3.750671,-10.40448 -15.851807,-7.264679 -12.059296,8.606781c8.074097,35.887054 56.544067,47.186401 88.404053,21.596954c7.086884,-5.808746 11.164856,-12.853821 12.228424,-21.142426c0.058136,-10.08252 -7.932281,-8.804962 -11.468475,4.5961c-1.121765,15.275482 -13.061066,22.086029 -32.378143,23.095062c9.666718,-17.242676 3.296173,-34.245331 4.950623,-51.367432c5.241516,-26.895035 30.005554,-44.442932 51.49527,-29.543777l0.498108,-12.406769c-29.914612,-9.979416 -71.183167,-14.302811 -102.117798,-13.96283l0,0.007446zm-65.074493,-0.681778c-1.641693,5.957657 -0.292664,11.917511 4.047089,17.882629c-27.312988,-10.085068 -48.53363,-1.76918 -48.242737,24.629486c1.270874,18.911469 23.087799,39.428131 17.626282,64.768494c20.844269,-2.834381 30.005585,-16.469971 28.592926,-36.417908c3.592529,-10.460846 12.968323,-7.117432 10.793945,8.095886c-7.519623,35.997955 -55.813202,48.037262 -88.062286,22.938721c-7.172302,-5.696045 -11.362991,-12.684753 -12.548355,-20.951538c-0.214523,-10.077606 7.805008,-8.926788 11.539337,4.417908c1.356293,15.262756 13.393799,21.887848 32.725418,22.605988c-9.935791,-17.095398 -3.819794,-34.188965 -5.730621,-51.281982c-5.652374,-26.809555 -25.743958,-38.86142 -51.942459,-28.756714l-0.689056,-12.399292c36.332474,-9.813995 70.705063,-15.118973 101.897812,-15.517136l-0.007294,-0.014542zm-118.771378,89.752533c-2.067139,-6.690521 0.992676,-7.925018 4.381577,-3.707062c13.05925,19.160736 4.936081,31.254578 -12.81929,40.14679c-29.196503,3.608887 -38.548691,-8.650421 -46.22644,-22.264191c-2.932556,-5.696045 -0.410889,-9.146729 3.707062,-1.683533c9.012207,9.026764 6.477814,19.658875 34.748932,22.264191c-19.89888,-18.848022 -14.117371,-37.056061 -29.849197,-60.399841c-4.821564,-6.797791 -10.615768,-6.21402 -16.404541,-5.952362c10.483047,-8.863129 21.638779,-16.389984 32.989029,-23.542313l3.408905,5.361526c-18.351669,4.588806 -24.182251,15.084595 -11.71933,34.223145c5.717865,17.137177 30.056458,30.745514 29.680115,46.602783c10.935745,-4.728821 15.991837,-13.464691 8.095917,-31.034607"/>
    <path fill="#000000" fill-rule="evenodd" id="path18" d="m139.739868,217.417435l-38.123291,26.65303l3.707062,5.058075l38.123276,-27.662247l-3.707047,-4.048859zm374.140503,-1.910797c12.477478,4.268845 24.033142,11.782959 34.670715,22.53508l-4.154297,4.501556c-10.97937,-11.148453 -21.951477,-17.853531 -32.930847,-22.533066l2.421692,-4.503571l-0.007263,0zm-160.176331,-39.528656l1.038086,8.315887l4.501587,0.341797c35.00528,0.745422 70.046906,5.134247 102.281433,16.988129l1.725372,-5.199707c-33.485352,-11.370255 -70.528717,-17.406281 -109.559174,-20.453384l0.012695,0.007278zm-167.035934,21.873291c30.59462,-11.050278 68.41246,-17.718979 109.284653,-21.929474c0.987213,3.117828 1.654449,5.275879 0.078186,8.401169c-37.192413,1.945343 -71.892242,8.061523 -107.381149,18.571838l-1.988968,-5.043533l0.007278,0zm115.02977,-29.499954l22.882355,-27.38588l23.91864,28.429276c14.104645,-14.146454 4.701538,-36.928802 -23.91864,-36.39592c-26.127625,1.363556 -36.354279,19.578705 -22.882355,35.359619l0,-0.007095zm-5.197845,-66.914543l4.848816,2.294411l17.677155,0.127266l-0.689056,-11.441147l-5.972382,-5.581406c6.455994,-3.614395 17.066284,-2.954376 25.609436,-0.341888l-5.759674,5.930626l-0.041809,11.441093l13.564728,0.085625l7.27774,-4.936264c3.636169,6.527084 3.636169,12.535828 0,18.024429l-5.197906,-3.465256l-15.595459,0.339981l0,7.279587l2.074402,7.968643l-18.026215,0.341965l2.770721,-15.595474l-17.677155,0.687057l-4.850616,3.459991c-2.590759,-6.065109 -2.590759,-11.612259 0,-16.64106l-0.012726,0.02182zm-147.826141,78.248268c15.730026,9.764893 37.803299,11.18663 39.741379,47.199127c26.093079,-18.669846 41.774002,1.392822 48.313614,18.231674c4.774261,12.28476 -3.457993,27.212646 4.339752,48.340515c-10.432144,-1.818054 -16.888138,-8.941284 -19.373459,-21.362396c-5.625122,-20.692841 -28.485641,-15.565857 -21.362411,6.455994c15.06279,28.534729 41.532196,34.203491 65.209015,31.589111c26.007629,-2.868927 48.669922,-20.538849 46.566437,-49.471375c-7.115936,-15.062775 -14.899139,-15.566376 -23.349579,-1.483368c-4.965179,10.43158 2.478027,27.319733 -14.90097,31.297668c1.158112,-20.198853 -20.531555,-40.402588 -20.36792,-56.139893c3.636169,-26.745743 23.016876,-29.893021 53.158813,-16.888123c-16.562714,-33.038116 3.968842,-51.419067 18.875275,-67.070908c15.895477,17.222656 31.95816,31.794556 18.877075,66.572571c35.652557,-19.317078 62.10556,1.952621 52.526093,21.533493c-7.804993,15.957092 -21.645996,40.500793 -19.238892,51.985596c-26.163971,-5.128815 0.32547,-40.5737 -27.81842,-40.737305c-19.537079,4.801544 -15.397278,31.297821 6.455994,48.193237c12.250214,9.268555 27.156647,13.24469 44.713867,11.917511c21.538727,-0.376343 38.370483,-13.344696 51.969727,-34.927094c4.723358,-13.9552 -11.56842,-22.73291 -18.200806,-10.383057c-4.559723,15.773651 -11.392059,26.425751 -24.047699,29.607391c4.687012,-16.824493 1.619904,-37.020966 4.957886,-53.510925c10.488525,-23.366135 26.382172,-28.742203 47.673676,-16.115646c2.010773,-38.641434 28.678345,-39.174118 41.333984,-53.71875c2.428955,18.869827 16.631775,28.771271 -9.517639,59.969315c20.667908,2.720032 29.523743,12.753815 12.39386,38.882874c-6.619629,11.135712 -18.302582,19.913391 -23.913177,31.389099c-11.013947,-11.448425 1.578064,-16.8172 2.372589,-25.233093c2.372559,-13.770111 -13.799225,-11.795685 -22.215088,7.946808c-2.883484,22.847809 6.656006,37.832428 43.528381,35.510712c14.317383,-5.148804 24.98407,-13.586487 30.311035,-26.831177c2.428894,-7.399597 -0.867249,-11.768433 -7.88324,-9.048584c-7.294067,7.790466 -16.626282,25.042206 -21.902344,23.393219c3.416138,-11.382996 8.514099,-23.442322 11.9375,-34.827118c7.152283,-20.702087 17.293579,-26.459778 30.432861,-17.278656c3.316101,-17.342651 21.21875,-26.283951 33.50531,-31.858185l-19.209839,42.213593c-17.357178,-2.656219 -17.215332,11.270264 -13.557373,18.740753l-30.218323,46.453735c-15.844543,2.138031 -21.760559,10.404846 -11.775635,18.840729l-6.612366,16.433594c-117.407867,-24.764038 -234.183014,-24.913116 -350.263672,1.98172l-9.437637,-13.408325c12.746552,-9.601257 5.461502,-20.531555 -9.439468,-20.864258l-32.290886,-45.211975c9.02494,-9.317657 1.525375,-21.680603 -14.402809,-19.869781c-6.414185,-14.075195 -8.784958,-25.467255 -19.253471,-42.242691c16.895401,4.794281 32.007286,14.75209 35.64344,32.803574c9.268555,-11.752045 19.211639,-7.612091 29.807373,12.413483c4.801559,12.911987 3.870712,23.473206 14.402832,38.748718c-14.900955,-3.308899 -15.893646,-15.568207 -23.840469,-23.35141c-5.796036,-5.297882 -14.077362,0.32724 -8.444977,9.439453c22.271454,32.127289 56.885849,37.426971 73.524918,5.461517c3.807053,-14.402802 -0.992676,-25.503998 -14.402817,-33.287201c-8.939499,0 -10.432144,6.455994 -5.957855,14.89917c4.630646,6.455994 7.77594,10.930267 1.981705,20.866089c-12.008392,-20.467926 -23.69136,-26.958466 -29.807373,-37.825134c-10.183075,-18.109497 -7.683228,-30.42334 17.882614,-32.221436c-23.264145,-24.422241 -12.995636,-35.352524 -9.437668,-54.151459l0.007278,0.007278zm326.181427,59.194809c5.710541,1.26355 8.899445,5.46167 7.094147,9.34491c-1.803558,3.877991 -7.939575,6.016022 -13.655609,4.752655c-5.710571,-1.265564 -8.899475,-5.4617 -7.095947,-9.339661c1.805389,-3.87796 7.934082,-6.016022 13.650116,-4.750458l0.007294,-0.007446zm1.512634,-4.068665c8.557678,1.945343 13.337402,8.4086 10.632111,14.380798c-2.699829,5.972565 -11.895691,9.25946 -20.460663,7.314117c-8.557678,-1.945343 -13.337402,-8.4086 -10.632111,-14.380798c2.699829,-5.972565 11.895691,-9.261475 20.4534,-7.314117l0.007263,0zm83.113434,34.237488c4.26886,0 7.75592,2.954376 7.75592,6.575989c0,3.621613 -3.487061,6.575989 -7.75592,6.575989c-4.26886,0 -7.75592,-2.954376 -7.75592,-6.575989c0,-3.621613 3.487061,-6.575989 7.75592,-6.575989zm-42.852112,65.456268c4.267029,0 7.75415,2.954376 7.75415,6.57782c0,3.621613 -3.487122,6.575989 -7.75415,6.575989c-4.26886,0 -7.75592,-2.954376 -7.75592,-6.575989c0,-3.623444 3.487061,-6.57782 7.75592,-6.57782zm-73.553986,-19.004364c7.619568,0.681763 13.833771,6.548706 13.833771,13.046509c0,6.505096 -6.214203,11.250275 -13.833771,10.568512c-7.614105,-0.681793 -13.828278,-6.548737 -13.828278,-13.053802c0,-6.497833 6.214172,-11.250275 13.828278,-10.561218zm-0.363586,3.828857c5.326935,0.476349 9.67395,4.579742 9.67395,9.124939c0,4.545197 -4.347015,7.86319 -9.67395,7.386871c-5.325195,-0.476349 -9.672211,-4.581573 -9.672211,-9.12677c0,-4.545197 4.347015,-7.861389 9.672211,-7.38504zm-116.044312,-98.532196c10.219421,0 18.549866,6.059845 18.549866,13.493774c0,7.42868 -8.330444,13.493774 -18.549866,13.493774c-10.219421,0 -18.557129,-6.057831 -18.557129,-13.493774c0,-7.428665 8.337708,-13.493774 18.557129,-13.493774zm-0.510895,3.367081c7.705048,0 13.997406,4.396118 13.997406,9.786728c0,5.383331 -6.285095,9.779602 -13.997406,9.779602c-7.705017,0 -13.997375,-4.396271 -13.997375,-9.779602c0,-5.39061 6.285095,-9.786728 13.997375,-9.786728zm0.170898,81.656815c9.104919,0 16.533661,5.603302 16.533661,12.477448c0,6.875977 -7.423248,12.479309 -16.533661,12.479309c-9.104919,0 -16.5336,-5.603333 -16.5336,-12.479309c0,-6.874146 7.421417,-12.477448 16.5336,-12.477448zm-0.341766,4.048859c6.314148,0 11.470215,4.012482 11.470215,8.941284c0,4.921539 -5.148773,8.941315 -11.470215,8.941315c-6.312408,0 -11.468475,-4.012482 -11.468475,-8.941315c0,-4.921539 5.148804,-8.941284 11.468475,-8.941284zm-144.408142,-70.513611c6.128738,0 11.135727,3.785034 11.135727,8.428406c0,4.645203 -4.999725,8.430634 -11.135727,8.430634c-6.130554,0 -11.130264,-3.785431 -11.130264,-8.430634c0,-4.643372 4.99971,-8.428406 11.130264,-8.428406zm0.503586,-3.069122c8.643173,0 15.688217,5.334259 15.688217,11.881165c0,6.541626 -7.045044,11.881134 -15.688217,11.881134c-8.635864,0 -15.688187,-5.332428 -15.688187,-11.881134c0,-6.539459 7.045044,-11.881165 15.688187,-11.881165zm28.172943,80.300537c7.805008,0 14.168289,5.341492 14.168289,11.881104c0,6.541473 -6.363281,11.881165 -14.168289,11.881165c-7.805008,0 -14.168274,-5.332428 -14.168274,-11.881165c0,-6.539612 6.363266,-11.881104 14.168274,-11.881104zm0.170914,4.083374c5.481506,0 9.948532,3.557983 9.948532,7.925018c0,4.361572 -4.467026,7.926819 -9.948532,7.926819c-5.476059,0 -9.950348,-3.557983 -9.950348,-7.926819c0,-4.367035 4.467026,-7.925018 9.950348,-7.925018zm-73.050385,18.337158c4.26886,0 7.75592,2.768921 7.75592,6.177826c0,3.403442 -3.479797,6.179657 -7.75592,6.179657c-4.268845,0 -7.755905,-2.770752 -7.755905,-6.179657c0,-3.401642 3.487061,-6.177826 7.755905,-6.177826zm-45.046516,-67.823425c3.990669,0 7.250481,3.154388 7.250481,7.025055c0,3.870697 -3.259811,7.023254 -7.250481,7.023254c-3.9925,0 -7.252312,-3.152557 -7.252312,-7.023254c0,-3.870667 3.259811,-7.025055 7.252312,-7.025055"/>
   </g>
  </g>
 </g>
</svg>